<svg width="188" height="543" viewBox="0 0 188 543" fill="none" xmlns="http://www.w3.org/2000/svg">
<path opacity="0.05" d="M100.32 46.7046C100.32 39.9846 101.4 33.7846 103.56 28.1046C105.72 22.4246 108.76 17.4646 112.68 13.2246C116.68 9.06458 121.32 5.82458 126.6 3.50458C131.88 1.18458 137.68 0.024581 144 0.0245809C150.32 0.0245808 156.12 1.18458 161.4 3.50458C166.68 5.82458 171.28 9.06458 175.2 13.2246C179.2 17.4646 182.28 22.4246 184.44 28.1046C186.6 33.7846 187.68 39.9846 187.68 46.7046C187.68 53.5046 186.6 59.7046 184.44 65.3046C182.28 70.9846 179.2 75.9046 175.2 80.0646C171.28 84.2246 166.68 87.4646 161.4 89.7846C156.12 92.1846 150.32 93.3846 144 93.3846C137.68 93.3846 131.84 92.1846 126.48 89.7846C121.2 87.4646 116.6 84.2246 112.68 80.0646C108.76 75.9046 105.72 70.9846 103.56 65.3046C101.4 59.7046 100.32 53.5046 100.32 46.7046ZM120 46.7046C120 49.9046 120.56 52.8646 121.68 55.5846C122.8 58.3846 124.4 60.7846 126.48 62.7846C128.64 64.8646 131.2 66.4646 134.16 67.5846C137.12 68.7846 140.4 69.3846 144 69.3846C147.68 69.3846 150.96 68.7846 153.84 67.5846C156.8 66.4646 159.32 64.8646 161.4 62.7846C163.56 60.7846 165.2 58.3846 166.32 55.5846C167.44 52.8646 168 49.9046 168 46.7046C168 43.5046 167.44 40.5046 166.32 37.7046C165.2 34.9846 163.56 32.5846 161.4 30.5046C159.32 28.5046 156.8 26.9046 153.84 25.7046C150.96 24.5846 147.68 24.0246 144 24.0246C140.4 24.0246 137.12 24.5846 134.16 25.7046C131.2 26.9046 128.64 28.5046 126.48 30.5046C124.4 32.5846 122.8 34.9846 121.68 37.7046C120.56 40.5046 120 43.5046 120 46.7046ZM100.32 144.589C100.32 132.189 103.72 122.509 110.52 115.549C117.32 108.589 126.96 105.109 139.44 105.109L186 105.109L186 128.869L140.16 128.869C132.96 128.869 127.8 130.269 124.68 133.069C121.56 135.949 120 139.869 120 144.829C120 149.789 121.56 153.669 124.68 156.469C127.8 159.269 132.96 160.669 140.16 160.669L186 160.669L186 184.069L139.44 184.069C126.96 184.069 117.32 180.589 110.52 173.629C103.72 166.669 100.32 156.989 100.32 144.589ZM102 200.165L186 200.165L186 238.565C186 246.245 184.76 252.845 182.28 258.365C179.8 263.965 176.2 268.285 171.48 271.325C166.84 274.365 161.32 275.885 154.92 275.885C148.6 275.885 143.12 274.365 138.48 271.325C133.92 268.285 130.4 263.965 127.92 258.365C125.52 252.845 124.32 246.245 124.32 238.565L124.32 213.365L134.28 223.925L102 223.925L102 200.165ZM102 252.125L132.6 231.245L132.6 256.565L102 277.565L102 252.125ZM131.76 223.925L142.68 213.365L142.68 237.125C142.68 242.085 143.76 245.765 145.92 248.165C148.08 250.645 151.08 251.885 154.92 251.885C158.84 251.885 161.88 250.645 164.04 248.165C166.2 245.765 167.28 242.085 167.28 237.125L167.28 213.365L178.2 223.925L131.76 223.925ZM2 4.34458L86 4.34458L86 47.3046C86 58.3446 83.96 66.5846 79.88 72.0246C75.88 77.4646 70.6 80.1846 64.04 80.1846C59.72 80.1846 55.92 79.0246 52.64 76.7046C49.44 74.4646 46.88 71.2646 44.96 67.1046C43.12 63.0246 42.2 58.1446 42.2 52.4646L47.96 54.8646C47.96 60.7846 47.04 65.9446 45.2 70.3446C43.44 74.7446 40.84 78.1446 37.4 80.5446C34.04 83.0246 29.92 84.2646 25.04 84.2646C17.76 84.2646 12.08 81.3046 8 75.3846C4 69.5446 2 60.9846 2 49.7046L2 4.34458ZM19.16 27.8646L19.16 47.7846C19.16 51.8646 19.84 54.9446 21.2 57.0246C22.64 59.1846 24.8 60.2646 27.68 60.2646C30.56 60.2646 32.68 59.1846 34.04 57.0246C35.48 54.9446 36.2 51.8646 36.2 47.7846L36.2 26.1846L52.64 26.1846L52.64 44.1846C52.64 48.1846 53.32 51.1846 54.68 53.1846C56.04 55.1846 58.08 56.1846 60.8 56.1846C63.52 56.1846 65.52 55.1846 66.8 53.1846C68.16 51.1846 68.84 48.1846 68.84 44.1846L68.84 27.8646L19.16 27.8646ZM2 96.5711L86 96.5711L86 134.971C86 142.651 84.76 149.251 82.28 154.771C79.8 160.371 76.2 164.691 71.48 167.731C66.84 170.771 61.32 172.291 54.92 172.291C48.6 172.291 43.12 170.771 38.48 167.731C33.92 164.691 30.4 160.371 27.92 154.771C25.52 149.251 24.32 142.651 24.32 134.971L24.32 109.771L34.28 120.331L2 120.331L2 96.5711ZM2 148.531L32.6 127.651L32.6 152.971L2 173.971L2 148.531ZM31.76 120.331L42.68 109.771L42.68 133.531C42.68 138.491 43.76 142.171 45.92 144.571C48.08 147.051 51.08 148.291 54.92 148.291C58.84 148.291 61.88 147.051 64.04 144.571C66.2 142.171 67.28 138.491 67.28 133.531L67.28 109.771L78.2 120.331L31.76 120.331ZM2 175.319L86 212.399L86 235.799L2 272.999L2 248.279L74.36 219.239L74.36 228.599L2 199.559L2 175.319ZM18.32 195.599L35.84 201.719L35.84 242.759L18.32 248.879L18.32 195.599ZM2 279.735L86 279.735L86 299.295L30.08 345.615L30.08 336.375L86 336.375L86 359.655L2 359.655L2 340.095L57.92 293.775L57.92 303.015L2 303.015L2 279.735ZM2 376.415L86 376.415L86 416.135C86 425.415 84.28 433.575 80.84 440.615C77.4 447.655 72.56 453.135 66.32 457.055C60.08 461.055 52.64 463.055 44 463.055C35.44 463.055 28 461.055 21.68 457.055C15.44 453.135 10.6 447.655 7.16001 440.615C3.72001 433.575 2.00001 425.415 2.00001 416.135L2 376.415ZM20.96 400.175L20.96 415.175C20.96 419.975 21.84 424.135 23.6 427.655C25.44 431.255 28.08 434.055 31.52 436.055C35.04 438.055 39.2 439.055 44 439.055C48.88 439.055 53.04 438.055 56.48 436.055C59.92 434.055 62.52 431.255 64.28 427.655C66.12 424.135 67.04 419.975 67.04 415.175L67.04 400.175L20.96 400.175ZM0.320006 505.076C0.320006 498.196 1.16001 491.556 2.84001 485.156C4.60001 478.836 6.84001 473.676 9.56001 469.676L27.08 477.476C24.68 481.236 22.68 485.556 21.08 490.436C19.56 495.396 18.8 500.316 18.8 505.196C18.8 508.476 19.08 511.116 19.64 513.116C20.28 515.116 21.08 516.556 22.04 517.436C23.08 518.396 24.28 518.876 25.64 518.876C27.56 518.876 29.08 517.996 30.2 516.236C31.32 514.476 32.24 512.196 32.96 509.396C33.68 506.596 34.4 503.476 35.12 500.036C35.84 496.676 36.76 493.276 37.88 489.836C39 486.476 40.44 483.396 42.2 480.596C44.04 477.796 46.4 475.516 49.28 473.756C52.24 471.996 55.96 471.116 60.44 471.116C65.48 471.116 70.04 472.476 74.12 475.196C78.2 477.996 81.48 482.156 83.96 487.676C86.44 493.196 87.68 500.076 87.68 508.316C87.68 513.836 87.04 519.236 85.76 524.516C84.56 529.876 82.76 534.636 80.36 538.796L62.72 531.476C64.88 527.476 66.48 523.516 67.52 519.596C68.64 515.676 69.2 511.876 69.2 508.196C69.2 504.916 68.84 502.276 68.12 500.276C67.48 498.276 66.6 496.836 65.48 495.956C64.36 495.076 63.08 494.636 61.64 494.636C59.8 494.636 58.32 495.476 57.2 497.156C56.16 498.916 55.28 501.196 54.56 503.996C53.92 506.876 53.24 509.996 52.52 513.356C51.8 516.796 50.88 520.196 49.76 523.556C48.72 526.996 47.28 530.116 45.44 532.916C43.68 535.716 41.32 537.956 38.36 539.636C35.48 541.396 31.84 542.276 27.44 542.276C22.56 542.276 18.04 540.876 13.88 538.076C9.80001 535.356 6.52001 531.236 4.04001 525.716C1.56001 520.276 0.320006 513.396 0.320006 505.076Z" fill="#4A2670"/>
</svg>
