<svg width="284" height="581" viewBox="0 0 284 581" fill="none" xmlns="http://www.w3.org/2000/svg">
<path opacity="0.1" d="M200 28.2246L265.16 28.2246L265.16 2.42458L284 2.42458L284 77.6646L265.16 77.6646L265.16 51.9846L200 51.9846L200 28.2246ZM284 142.676L284 166.436L200 166.436L200 142.676L284 142.676ZM200 110.276L200 86.5165L284 86.5165L284 110.276L200 110.276ZM232.76 144.356L232.76 108.596L252.44 108.596L252.44 144.356L232.76 144.356ZM251.48 205.036L251.48 244.036L233.72 244.036L233.72 205.036L251.48 205.036ZM218.36 206.716L218.36 250.636L200 250.636L200 183.196L284 183.196L284 249.076L265.64 249.076L265.64 206.716L218.36 206.716ZM100 36.1446L184 0.264581L184 25.9446L111.28 56.1846L111.28 41.0646L184 72.0246L184 95.5446L100 59.5446L100 36.1446ZM100 100.462L184 100.462L184 124.222L100 124.222L100 100.462ZM100 141.126L184 141.126L184 184.086C184 195.126 181.96 203.366 177.88 208.806C173.88 214.246 168.6 216.966 162.04 216.966C157.72 216.966 153.92 215.806 150.64 213.486C147.44 211.246 144.88 208.046 142.96 203.886C141.12 199.806 140.2 194.926 140.2 189.246L145.96 191.646C145.96 197.566 145.04 202.726 143.2 207.126C141.44 211.526 138.84 214.926 135.4 217.326C132.04 219.806 127.92 221.046 123.04 221.046C115.76 221.046 110.08 218.086 106 212.166C102 206.326 100 197.766 100 186.486L100 141.126ZM117.16 164.646L117.16 184.566C117.16 188.646 117.84 191.726 119.2 193.806C120.64 195.966 122.8 197.046 125.68 197.046C128.56 197.046 130.68 195.966 132.04 193.806C133.48 191.726 134.2 188.646 134.2 184.566L134.2 162.966L150.64 162.966L150.64 180.966C150.64 184.966 151.32 187.966 152.68 189.966C154.04 191.966 156.08 192.966 158.8 192.966C161.52 192.966 163.52 191.966 164.8 189.966C166.16 187.966 166.84 184.966 166.84 180.966L166.84 164.646L117.16 164.646ZM100 233.352L184 233.352L184 271.752C184 279.432 182.76 286.032 180.28 291.552C177.8 297.152 174.2 301.472 169.48 304.512C164.84 307.552 159.32 309.072 152.92 309.072C146.6 309.072 141.12 307.552 136.48 304.512C131.92 301.472 128.4 297.152 125.92 291.552C123.52 286.032 122.32 279.432 122.32 271.752L122.32 246.552L132.28 257.112L100 257.112L100 233.352ZM100 285.312L130.6 264.432L130.6 289.752L100 310.752L100 285.312ZM129.76 257.112L140.68 246.552L140.68 270.312C140.68 275.272 141.76 278.952 143.92 281.352C146.08 283.832 149.08 285.072 152.92 285.072C156.84 285.072 159.88 283.832 162.04 281.352C164.2 278.952 165.28 275.272 165.28 270.312L165.28 246.552L176.2 257.112L129.76 257.112ZM100 312.101L184 349.181L184 372.581L100 409.781L100 385.061L172.36 356.021L172.36 365.381L100 336.341L100 312.101ZM116.32 332.381L133.84 338.501L133.84 379.541L116.32 385.661L116.32 332.381ZM100 416.516L184 416.516L184 436.076L128.08 482.396L128.08 473.156L184 473.156L184 496.436L100 496.436L100 476.876L155.92 430.556L155.92 439.796L100 439.796L100 416.516ZM100 531.076L165.16 531.076L165.16 505.276L184 505.276L184 580.516L165.16 580.516L165.16 554.836L100 554.836L100 531.076ZM3.4773e-07 31.1046L84 3.86458L84 28.3446L11.28 51.2646L11.28 38.9046L84 63.0246L84 84.8646L11.28 107.665L11.28 95.7846L84 119.425L84 142.105L1.34656e-06 114.865L1.04319e-06 89.4246L61.8 69.9846L61.8 76.8246L6.51099e-07 56.5446L3.4773e-07 31.1046ZM1.61777e-06 137.608L84 174.688L84 198.088L2.7826e-06 235.288L2.48781e-06 210.568L72.36 181.528L72.36 190.888L1.90683e-06 161.848L1.61777e-06 137.608ZM16.32 157.888L33.84 164.008L33.84 205.048L16.32 211.168L16.32 157.888ZM3.05332e-06 257.991L35.52 257.991L21.24 263.511L84 225.951L84 251.031L38.52 278.151L38.52 263.631L84 290.871L84 313.911L21.24 276.471L35.52 281.751L3.33666e-06 281.751L3.05332e-06 257.991Z" fill="black"/>
</svg>
