<svg width="36" height="35" viewBox="0 0 36 35" fill="none" xmlns="http://www.w3.org/2000/svg">
<path d="M35.4375 17.4446C35.4375 7.81177 27.6328 0.00708008 18 0.00708008C8.36719 0.00708008 0.5625 7.81177 0.5625 17.4446C0.5625 27.0774 8.36719 34.8821 18 34.8821C27.6328 34.8821 35.4375 27.0774 35.4375 17.4446ZM3.9375 17.4446C3.9375 9.71021 10.1953 3.38208 18 3.38208C25.7344 3.38208 32.0625 9.71021 32.0625 17.4446C32.0625 25.2493 25.7344 31.5071 18 31.5071C10.1953 31.5071 3.9375 25.2493 3.9375 17.4446ZM9 18.8508C9 19.343 9.35156 19.6946 9.84375 19.6946H18V24.4055C18 25.179 18.8438 25.6008 19.4062 25.0383L26.3672 18.0774C26.7188 17.7258 26.7188 17.2336 26.3672 16.8821L19.4062 9.92114C18.8438 9.35864 18 9.78052 18 10.4836V15.1946H9.84375C9.35156 15.1946 9 15.6165 9 16.0383V18.8508Z" />
</svg>
